<svg width="1360" height="272" viewBox="0 0 1360 272" fill="none" xmlns="http://www.w3.org/2000/svg">
<g clip-path="url(#clip0_8_7)">
<path d="M1276.65 227.7C1243.45 227.7 1219.15 224.5 1203.75 218.1C1195.95 214.7 1192.05 211.4 1192.05 208.2C1192.05 200 1194.45 190.4 1199.25 179.4C1204.05 168.4 1208.25 162.9 1211.85 162.9C1213.85 162.9 1220.55 165.1 1231.95 169.5C1243.55 173.9 1253.25 176.1 1261.05 176.1C1269.05 176.1 1274.25 175.6 1276.65 174.6C1279.25 173.6 1280.55 171.7 1280.55 168.9C1280.55 165.9 1278.55 163.6 1274.55 162C1270.55 160.2 1265.55 159 1259.55 158.4C1253.55 157.8 1247.05 156.6 1240.05 154.8C1233.25 153 1226.85 150.7 1220.85 147.9C1214.85 145.1 1209.85 140.5 1205.85 134.1C1201.85 127.5 1199.85 120.5 1199.85 113.1C1199.85 105.5 1200.05 99.9 1200.45 96.3C1200.85 92.5 1202.45 87.3 1205.25 80.7C1208.25 73.9 1212.35 68.4 1217.55 64.2C1222.95 60 1231.15 56.2 1242.15 52.8C1253.35 49.4 1265.85 47.7 1279.65 47.7C1293.45 47.7 1304.95 48.2 1314.15 49.2C1323.55 50 1330.85 51.1 1336.05 52.5C1341.45 53.9 1345.85 55.5 1349.25 57.3C1355.05 60.3 1357.95 63.6 1357.95 67.2C1357.95 75 1355.15 84 1349.55 94.2C1343.95 104.4 1339.45 109.5 1336.05 109.5C1332.85 109.5 1325.75 107.8 1314.75 104.4C1303.75 100.8 1295.65 99 1290.45 99C1282.05 99 1277.85 101.4 1277.85 106.2C1277.85 109.2 1280.65 111.5 1286.25 113.1C1292.05 114.5 1298.95 116 1306.95 117.6C1314.95 119.2 1322.95 121.5 1330.95 124.5C1339.15 127.3 1346.05 132.5 1351.65 140.1C1357.45 147.7 1360.35 157.3 1360.35 168.9C1360.35 208.1 1332.45 227.7 1276.65 227.7Z" fill="#FF1053"/>
<path d="M1097.5 205.2V187.8H1095.1C1094.3 188.8 1092.9 190.1 1090.9 191.7C1088.9 193.1 1083.9 195.1 1075.9 197.7C1068.1 200.3 1059.2 201.6 1049.2 201.6C1039.4 201.6 1031.1 200.1 1024.3 197.1C1017.5 194.1 1012.2 190.4 1008.4 186C1004.6 181.4 1001.6 175.3 999.399 167.7C995.999 155.9 994.299 139.9 994.299 119.7C994.299 96.5 999.199 78.7 1009 66.3C1012.8 61.3 1018.4 57.1 1025.8 53.7C1033.4 50.1 1041.5 48.3 1050.1 48.3C1058.7 48.3 1065.8 49.3 1071.4 51.3C1077 53.1 1081.2 55.3 1084 57.9C1089.6 63.5 1092.8 68.4 1093.6 72.6L1093.9 75.3H1096.3L1099 63.6C1101 55.2 1116.8 51 1146.4 51C1159.6 51 1167.6 53 1170.4 57C1172 59.4 1173 61.7 1173.4 63.9C1173.8 65.9 1174 69 1174 73.2V198.9C1174 222.5 1166.3 240.5 1150.9 252.9C1135.5 265.3 1112.9 271.5 1083.1 271.5C1051.5 271.5 1030 268.4 1018.6 262.2C1013.6 259.4 1011.1 256.5 1011.1 253.5C1011.1 248.7 1013 240.6 1016.8 229.2C1020.8 217.8 1024.5 212.1 1027.9 212.1C1028.7 212.1 1031.5 212.8 1036.3 214.2C1051.5 218.2 1063.8 220.2 1073.2 220.2C1082.8 220.2 1089.2 219 1092.4 216.6C1095.8 214.2 1097.5 210.4 1097.5 205.2ZM1085.5 167.4C1087.7 167.4 1089.5 166.6 1090.9 165C1092.3 163.4 1093 161.6 1093 159.6V97.8C1092.2 93.6 1090 91.5 1086.4 91.5C1078.8 91.5 1075 104 1075 129C1075 140.6 1075.9 149.9 1077.7 156.9C1079.7 163.9 1082.3 167.4 1085.5 167.4Z" fill="#FF1053"/>
<path d="M976.343 125.4V217.8C976.343 220 970.643 221.8 959.243 223.2C947.843 224.4 936.043 225 923.843 225C911.843 225 904.043 224.5 900.443 223.5C897.043 222.3 895.343 220.4 895.343 217.8V122.4C895.343 113.4 894.943 107.5 894.143 104.7C893.543 101.9 892.943 99.4 892.343 97.2C890.943 93.4 888.443 91.5 884.843 91.5C879.243 91.5 876.443 94.2 876.443 99.6V217.8C876.443 220 870.743 221.8 859.343 223.2C848.143 224.4 836.443 225 824.243 225C812.243 225 804.443 224.5 800.843 223.5C797.243 222.3 795.443 220.4 795.443 217.8V69.9C795.443 65.7 801.143 61.5 812.543 57.3C824.143 53.1 836.343 51 849.143 51C861.943 51 869.143 54.7 870.743 62.1L873.443 75.3H875.543C881.343 63.7 891.343 55.6 905.543 51C911.343 49.2 917.743 48.3 924.743 48.3C944.943 48.3 958.543 54.4 965.543 66.6C972.743 78.6 976.343 98.2 976.343 125.4Z" fill="#FF1053"/>
<path d="M653.225 227.7C635.025 227.7 620.725 223.4 610.325 214.8C606.125 211.2 602.425 205.9 599.225 198.9C596.225 191.9 594.725 183.7 594.725 174.3C594.725 164.9 596.925 156.7 601.325 149.7C605.925 142.7 611.425 137.3 617.825 133.5C624.225 129.7 631.725 126.6 640.325 124.2C653.325 120.8 667.625 119.1 683.225 119.1H693.125C693.125 110.9 690.325 105.1 684.725 101.7C682.325 100.3 678.625 99.6 673.625 99.6C668.825 99.6 662.925 100.9 655.925 103.5C649.125 106.1 643.425 108.8 638.825 111.6C634.225 114.2 631.125 115.5 629.525 115.5C625.925 115.5 621.025 110.8 614.825 101.4C608.625 91.8 605.525 83.1 605.525 75.3C605.525 72.7 609.225 69.3 616.625 65.1C624.025 60.9 634.425 57.1 647.825 53.7C661.425 50.1 674.625 48.3 687.425 48.3C700.225 48.3 711.225 49.4 720.425 51.6C729.825 53.6 737.425 56.1 743.225 59.1C749.225 62.1 754.225 66.1 758.225 71.1C762.425 76.1 765.525 80.6 767.525 84.6C769.725 88.6 771.325 93.8 772.325 100.2C773.725 107.6 774.425 116.7 774.425 127.5V217.8C774.425 220 769.025 221.8 758.225 223.2C747.625 224.4 737.025 225 726.425 225C716.025 225 709.225 224.7 706.025 224.1C703.025 223.5 701.225 222.8 700.625 222C700.025 221.2 699.525 219.8 699.125 217.8L696.725 200.7H694.325C689.325 218.7 675.625 227.7 653.225 227.7ZM693.425 177.9V142.8C688.225 142.8 684.025 145 680.825 149.4C677.625 153.8 676.025 158.8 676.025 164.4C676.025 177.6 679.025 184.2 685.025 184.2C687.625 184.2 689.625 183.6 691.025 182.4C692.625 181 693.425 179.5 693.425 177.9Z" fill="#FF1053"/>
<path d="M412.334 222C401.334 219.2 395.834 215 395.834 209.4V19.2C395.834 14.8 401.734 10.5 413.534 6.3C425.334 2.1 437.734 0 450.734 0C468.334 0 477.134 4.59999 477.134 13.8V47.7L473.834 68.4H476.234C477.434 66.6 479.634 64.4 482.834 61.8C486.234 59.2 489.734 57 493.334 55.2C502.134 50.6 511.834 48.3 522.434 48.3C533.034 48.3 541.334 49.7 547.334 52.5C553.534 55.1 558.434 58.6 562.034 63C565.834 67.2 568.834 72.6 571.034 79.2C574.834 90.6 576.734 104.8 576.734 121.8C576.734 150 573.534 171.6 567.134 186.6C560.734 201.6 550.334 212.2 535.934 218.4C521.534 224.6 501.234 227.7 475.034 227.7C448.834 227.7 427.934 225.8 412.334 222ZM476.834 183.6H486.134C492.534 183.6 495.734 168.3 495.734 137.7C495.734 106.9 492.434 91.5 485.834 91.5H476.834V183.6Z" fill="#FF1053"/>
<path d="M328.514 217.8C325.914 222.6 312.314 225 287.714 225C263.314 225 250.614 222.6 249.614 217.8L239.414 163.2H235.214L225.614 217.8C225.014 222.6 207.514 225 173.114 225C163.514 225 157.114 224.5 153.914 223.5C150.914 222.3 148.814 220.4 147.614 217.8C110.414 126.4 91.8145 78.3 91.8145 73.5C91.8145 68.7 99.0145 63.8 113.414 58.8C128.014 53.6 142.014 51 155.414 51C172.614 51 181.514 55.6 182.114 64.8L192.314 147H195.914L199.514 80.7C199.714 75.7 204.814 71.3 214.814 67.5C224.814 63.7 234.914 61.8 245.114 61.8C255.314 61.8 262.914 63.1 267.914 65.7C273.114 68.1 275.814 71.1 276.014 74.7L279.314 147H282.614L292.514 69.9C293.114 65.1 299.814 60.8 312.614 57C325.614 53 337.014 51 346.814 51C356.614 51 364.314 52.4 369.914 55.2C379.114 59.6 383.714 64.8 383.714 70.8C383.714 71.4 374.614 95.8 356.414 144C338.414 192.2 329.114 216.8 328.514 217.8Z" fill="#FF1053"/>
<path d="M0.00508475 15C-0.194915 12.8 5.50508 11.1 17.1051 9.90001C28.7051 8.5 42.3051 7.8 57.9051 7.8C73.5051 7.8 81.3051 10.1 81.3051 14.7C81.3051 20.5 79.5051 68.7 75.9051 159.3C75.7051 164.3 72.1051 168.8 65.1051 172.8C58.1051 176.8 48.2051 178.8 35.4051 178.8C18.0051 178.8 8.90509 174.1 8.10509 164.7L0.00508475 15ZM78.0051 222.3C78.0051 232.5 74.7051 239.5 68.1051 243.3C61.7051 247.3 52.6051 249.3 40.8051 249.3C29.2051 249.3 20.3051 247.5 14.1051 243.9C7.90508 240.5 4.80508 233.3 4.80508 222.3C4.80508 204.3 17.0051 195.3 41.4051 195.3C65.8051 195.3 78.0051 204.3 78.0051 222.3Z" fill="#FF1053"/>
</g>
<defs>
<clipPath id="clip0_8_7">
<rect width="1360" height="272" fill="white"/>
</clipPath>
</defs>
</svg>
