<svg width="384" height="384" viewBox="0 0 384 384" fill="none" xmlns="http://www.w3.org/2000/svg">
<path d="M328.514 281C325.914 285.8 312.314 288.2 287.714 288.2C263.314 288.2 250.614 285.8 249.614 281L239.414 226.4H235.214L225.614 281C225.014 285.8 207.514 288.2 173.114 288.2C163.514 288.2 157.114 287.7 153.914 286.7C150.914 285.5 148.814 283.6 147.614 281C110.414 189.6 91.8145 141.5 91.8145 136.7C91.8145 131.9 99.0145 127 113.414 122C128.014 116.8 142.014 114.2 155.414 114.2C172.614 114.2 181.514 118.8 182.114 128L192.314 210.2H195.914L199.514 143.9C199.714 138.9 204.814 134.5 214.814 130.7C224.814 126.9 234.914 125 245.114 125C255.314 125 262.914 126.3 267.914 128.9C273.114 131.3 275.814 134.3 276.014 137.9L279.314 210.2H282.614L292.514 133.1C293.114 128.3 299.814 124 312.614 120.2C325.614 116.2 337.014 114.2 346.814 114.2C356.614 114.2 364.314 115.6 369.914 118.4C379.114 122.8 383.714 128 383.714 134C383.714 134.6 374.614 159 356.414 207.2C338.414 255.4 329.114 280 328.514 281Z" fill="#FF1053"/>
<path d="M0.00508475 78.2C-0.194915 76 5.50508 74.3 17.1051 73.1C28.7051 71.7 42.3051 71 57.9051 71C73.5051 71 81.3051 73.3 81.3051 77.9C81.3051 83.7 79.5051 131.9 75.9051 222.5C75.7051 227.5 72.1051 232 65.1051 236C58.1051 240 48.2051 242 35.4051 242C18.0051 242 8.90509 237.3 8.10509 227.9L0.00508475 78.2ZM78.0051 285.5C78.0051 295.7 74.7051 302.7 68.1051 306.5C61.7051 310.5 52.6051 312.5 40.8051 312.5C29.2051 312.5 20.3051 310.7 14.1051 307.1C7.90508 303.7 4.80508 296.5 4.80508 285.5C4.80508 267.5 17.0051 258.5 41.4051 258.5C65.8051 258.5 78.0051 267.5 78.0051 285.5Z" fill="#FF1053"/>
</svg>
